# xmcd
#
# Track frame offsets:
#	150
#	15900
#	27950
#	43923
#	62110
#	79665
#	93838
#	110377
#	128364
#	142464
#	157121
#	170550
#	189150
#	206357
#
# Disc length: 2891 seconds
#
# Revision: 1
# Processed by: cddbd v1.5.2PL0 Copyright (c) Steve Scherf et al.
# Submitted via: audiograbber 1.83.01
#
DISCID=b30b490e
DTITLE=Nubya - Love Rocks
DYEAR=2007
DGENRE=
TTITLE0=Cold as ice
TTITLE1=Kiss
TTITLE2=These boots are made for walking
TTITLE3=Don't speak
TTITLE4=I was made for loving you
TTITLE5=Staying alive
TTITLE6=Time after Time
TTITLE7=I'm not in love
TTITLE8=Goldeneye
TTITLE9=Halleluja I love him so
TTITLE10=Lean on me
TTITLE11=Summer in the city
TTITLE12=(I can't get no) Satisfaction
TTITLE13=Something
EXTD=
EXTT0=
EXTT1=
EXTT2=
EXTT3=
EXTT4=
EXTT5=
EXTT6=
EXTT7=
EXTT8=
EXTT9=
EXTT10=
EXTT11=
EXTT12=
EXTT13=
PLAYORDER=
